# xmcd CD database file
#
# Track frame offsets:
#	150
#	11977
#	27353
#	40798
#	58131
#	71328
#	89630
#	100616
#	114592
#	137725
#	156584
#	175391
#	192780
#	205534
#
# Disc length: 2875 seconds
#
# Revision: 0
# Processed by: cddbd v1.4PL0 Copyright (c) Steve Scherf et al.
# Submitted via: CDex 1.50
#
DISCID=c20b390e
DTITLE=New Legacy Duo - Piedmont Blues
DYEAR=1999
DGENRE=Blues
TTITLE0=She Can Cook Good Sallett
TTITLE1=Folsom Prison Blues
TTITLE2=Gin Done Done It
TTITLE3=Mr. Ditty Wa Ditty
TTITLE4=Step It Up and Go
TTITLE5=Same Thing
TTITLE6=Anybody Seen My Gal
TTITLE7=Cigarette Blues
TTITLE8=Nobody Home But Me
TTITLE9=Delta
TTITLE10=Why You Treat Me Like That
TTITLE11=One Kind Favor
TTITLE12=Chickens
TTITLE13=Amazing Grace
EXTD=YEAR: 1999
EXTT0=
EXTT1=
EXTT2=
EXTT3=
EXTT4=
EXTT5=
EXTT6=
EXTT7=
EXTT8=
EXTT9=
EXTT10=
EXTT11=
EXTT12=
EXTT13=
PLAYORDER=
